# xmcd
#
# Track frame offsets:
#	150
#	33914
#	40352
#	67282
#	80937
#	129222
#	137628
#	151255
#	159870
#	169269
#
# Disc length: 2691 seconds
#
# Revision: 1
# Processed by: cddbd v1.5.1PL0 Copyright (c) Steve Scherf et al.
# Submitted via: EasyCDDAExtractor 7.0.4.1
#
DISCID=820a810a
DTITLE=woomyung
DYEAR=1900
DGENRE=
TTITLE0=Track 1-1
TTITLE1=Track 2-1
TTITLE2=Track 3-1
TTITLE3=Track 4-1
TTITLE4=Track 5-1
TTITLE5=Track 6-1
TTITLE6=Track 7-1
TTITLE7=Track 8-1
TTITLE8=Track 9-1
TTITLE9=Track 10-1
EXTD=
EXTT0=
EXTT1=
EXTT2=
EXTT3=
EXTT4=
EXTT5=
EXTT6=
EXTT7=
EXTT8=
EXTT9=
PLAYORDER=
